<svg width="20" height="20" viewBox="0 0 20 20" fill="none" xmlns="http://www.w3.org/2000/svg">
<path d="M10.8333 8.88163C10.8333 7.84228 10.0489 7 9.08095 7H1.75239C0.784478 7 0 7.84228 0 8.88163V18.1185C0 19.1577 0.784478 20 1.75239 20H9.08095C10.0489 20 10.8333 19.1577 10.8333 18.1185V8.88163ZM7.80639 16.921H3.02694C2.76312 16.921 2.549 16.6911 2.549 16.4079C2.549 16.1246 2.76312 15.8947 3.02694 15.8947H7.80639C8.07022 15.8947 8.28434 16.1246 8.28434 16.4079C8.28434 16.6911 8.07022 16.921 7.80639 16.921ZM7.80639 14.8684H3.02694C2.76312 14.8684 2.549 14.6385 2.549 14.3552C2.549 14.072 2.76312 13.8421 3.02694 13.8421H7.80639C8.07022 13.8421 8.28434 14.072 8.28434 14.3552C8.28434 14.6385 8.07022 14.8684 7.80639 14.8684ZM7.80639 12.8158H3.02694C2.76312 12.8158 2.549 12.5859 2.549 12.3026C2.549 12.0193 2.76312 11.7894 3.02694 11.7894H7.80639C8.07022 11.7894 8.28434 12.0193 8.28434 12.3026C8.28434 12.5859 8.07022 12.8158 7.80639 12.8158Z" fill="#307FE2"/>
<path fill-rule="evenodd" clip-rule="evenodd" d="M8 3C8 3.55228 8.44772 4 9 4L19 4C19.5523 4 20 3.55228 20 3C20 2.44772 19.5523 2 19 2L9 2C8.44772 2 8 2.44772 8 3Z" fill="#307FE2"/>
<path fill-rule="evenodd" clip-rule="evenodd" d="M8.29289 2.29289C7.90237 2.68342 7.90237 3.31658 8.29289 3.70711L10.2929 5.70711C10.6834 6.09763 11.3166 6.09763 11.7071 5.70711C12.0976 5.31658 12.0976 4.68342 11.7071 4.29289L9.70711 2.29289C9.31658 1.90237 8.68342 1.90237 8.29289 2.29289Z" fill="#307FE2"/>
<path fill-rule="evenodd" clip-rule="evenodd" d="M8.29289 3.70711C8.68342 4.09763 9.31658 4.09763 9.70711 3.70711L11.7071 1.70711C12.0976 1.31658 12.0976 0.683417 11.7071 0.292893C11.3166 -0.0976313 10.6834 -0.0976308 10.2929 0.292894L8.29289 2.29289C7.90237 2.68342 7.90237 3.31658 8.29289 3.70711Z" fill="#307FE2"/>
</svg>
