<svg width="18" height="20" viewBox="0 0 18 20" fill="none" xmlns="http://www.w3.org/2000/svg">
<path d="M17.3333 2.89481C17.3333 1.29581 16.1265 0 14.6374 0H3.36265C1.87356 0 0.666672 1.29581 0.666672 2.89481V17.1054C0.666672 18.7042 1.87356 20 3.36265 20H14.6374C16.1265 20 17.3333 18.7042 17.3333 17.1054V2.89481ZM12.6765 15.2631H5.32351C4.91762 15.2631 4.58821 14.9095 4.58821 14.4737C4.58821 14.0379 4.91762 13.6842 5.32351 13.6842H12.6765C13.0824 13.6842 13.4118 14.0379 13.4118 14.4737C13.4118 14.9095 13.0824 15.2631 12.6765 15.2631ZM12.6765 12.1052H5.32351C4.91762 12.1052 4.58821 11.7516 4.58821 11.3158C4.58821 10.88 4.91762 10.5263 5.32351 10.5263H12.6765C13.0824 10.5263 13.4118 10.88 13.4118 11.3158C13.4118 11.7516 13.0824 12.1052 12.6765 12.1052ZM12.6765 8.94733H5.32351C4.91762 8.94733 4.58821 8.59365 4.58821 8.15786C4.58821 7.72206 4.91762 7.36838 5.32351 7.36838H12.6765C13.0824 7.36838 13.4118 7.72206 13.4118 8.15786C13.4118 8.59365 13.0824 8.94733 12.6765 8.94733Z" fill="#307FE2"/>
</svg>
