<svg width="20" height="20" viewBox="0 0 20 20" fill="none" xmlns="http://www.w3.org/2000/svg">
<path d="M10.8333 8.88163C10.8333 7.84228 10.0489 7 9.08095 7H1.75239C0.784478 7 0 7.84228 0 8.88163V18.1185C0 19.1577 0.784478 20 1.75239 20H9.08095C10.0489 20 10.8333 19.1577 10.8333 18.1185V8.88163ZM7.80639 16.921H3.02694C2.76312 16.921 2.549 16.6911 2.549 16.4079C2.549 16.1246 2.76312 15.8947 3.02694 15.8947H7.80639C8.07022 15.8947 8.28434 16.1246 8.28434 16.4079C8.28434 16.6911 8.07022 16.921 7.80639 16.921ZM7.80639 14.8684H3.02694C2.76312 14.8684 2.549 14.6385 2.549 14.3552C2.549 14.072 2.76312 13.8421 3.02694 13.8421H7.80639C8.07022 13.8421 8.28434 14.072 8.28434 14.3552C8.28434 14.6385 8.07022 14.8684 7.80639 14.8684ZM7.80639 12.8158H3.02694C2.76312 12.8158 2.549 12.5859 2.549 12.3026C2.549 12.0193 2.76312 11.7894 3.02694 11.7894H7.80639C8.07022 11.7894 8.28434 12.0193 8.28434 12.3026C8.28434 12.5859 8.07022 12.8158 7.80639 12.8158Z" fill="#82879B"/>
<path fill-rule="evenodd" clip-rule="evenodd" d="M20 3C20 3.55228 19.5523 4 19 4L9 4C8.44771 4 8 3.55228 8 3C8 2.44772 8.44771 2 9 2L19 2C19.5523 2 20 2.44772 20 3Z" fill="#82879B"/>
<path fill-rule="evenodd" clip-rule="evenodd" d="M19.7071 2.29289C20.0976 2.68342 20.0976 3.31658 19.7071 3.70711L17.7071 5.70711C17.3166 6.09763 16.6834 6.09763 16.2929 5.70711C15.9024 5.31658 15.9024 4.68342 16.2929 4.29289L18.2929 2.29289C18.6834 1.90237 19.3166 1.90237 19.7071 2.29289Z" fill="#82879B"/>
<path fill-rule="evenodd" clip-rule="evenodd" d="M19.7071 3.70711C19.3166 4.09763 18.6834 4.09763 18.2929 3.70711L16.2929 1.70711C15.9024 1.31658 15.9024 0.683417 16.2929 0.292893C16.6834 -0.0976313 17.3166 -0.0976308 17.7071 0.292894L19.7071 2.29289C20.0976 2.68342 20.0976 3.31658 19.7071 3.70711Z" fill="#82879B"/>
</svg>
