<svg width="16" height="16" viewBox="0 0 16 16" fill="none" xmlns="http://www.w3.org/2000/svg">
<path fill-rule="evenodd" clip-rule="evenodd" d="M8 2C4.68567 2 2 4.68486 2 7.99544C2 11.306 4.68567 13.9909 8 13.9909C11.3143 13.9909 14 11.306 14 7.99544C14 4.68486 11.3143 2 8 2ZM0 7.99544C0 3.57906 3.58233 0 8 0C12.4177 0 16 3.57906 16 7.99544C16 12.4118 12.4177 15.9909 8 15.9909C3.58233 15.9909 0 12.4118 0 7.99544Z" fill="#38B717"/>
<path fill-rule="evenodd" clip-rule="evenodd" d="M11.8002 6.3964C12.1314 6.83833 12.0417 7.46511 11.5997 7.79634L7.59975 10.7944C7.20173 11.0927 6.64496 11.0531 6.29312 10.7015L4.29312 8.70284C3.90247 8.31244 3.90227 7.67928 4.29266 7.28862C4.68306 6.89797 5.31622 6.89777 5.70688 7.28816L7.0938 8.67418L10.4003 6.19597C10.8422 5.86473 11.469 5.95447 11.8002 6.3964Z" fill="#38B717"/>
</svg>
