<svg width="14" height="16" viewBox="0 0 14 16" fill="none" xmlns="http://www.w3.org/2000/svg">
<path fill-rule="evenodd" clip-rule="evenodd" d="M3 8C3 7.44772 3.44772 7 4 7H10C10.5523 7 11 7.44772 11 8C11 8.55228 10.5523 9 10 9H4C3.44772 9 3 8.55228 3 8Z" fill="#307FE2"/>
<path fill-rule="evenodd" clip-rule="evenodd" d="M3 11C3 10.4477 3.44772 10 4 10H10C10.5523 10 11 10.4477 11 11C11 11.5523 10.5523 12 10 12H4C3.44772 12 3 11.5523 3 11Z" fill="#307FE2"/>
<path fill-rule="evenodd" clip-rule="evenodd" d="M0 2C0 0.894064 0.896367 0 2 0H12C13.1036 0 14 0.894064 14 2V14C14 15.1059 13.1036 16 12 16H2C0.896367 16 0 15.1059 0 14V2ZM12 2H2V14H12V2Z" fill="#307FE2"/>
<path fill-rule="evenodd" clip-rule="evenodd" d="M3 5C3 4.44772 3.44772 4 4 4H8C8.55228 4 9 4.44772 9 5C9 5.55228 8.55228 6 8 6H4C3.44772 6 3 5.55228 3 5Z" fill="#307FE2"/>
</svg>
