<svg width="16" height="16" viewBox="0 0 16 16" fill="none" xmlns="http://www.w3.org/2000/svg">
<path fill-rule="evenodd" clip-rule="evenodd" d="M8 0C8.55228 0 9 0.447715 9 1V11C9 11.5523 8.55228 12 8 12C7.44772 12 7 11.5523 7 11V1C7 0.447715 7.44772 0 8 0Z" fill="#307FE2"/>
<path fill-rule="evenodd" clip-rule="evenodd" d="M5.29289 8.29289C5.68342 7.90237 6.31658 7.90237 6.70711 8.29289L8.70711 10.2929C9.09763 10.6834 9.09763 11.3166 8.70711 11.7071C8.31658 12.0976 7.68342 12.0976 7.29289 11.7071L5.29289 9.70711C4.90237 9.31658 4.90237 8.68342 5.29289 8.29289Z" fill="#307FE2"/>
<path fill-rule="evenodd" clip-rule="evenodd" d="M10.7071 8.29289C11.0976 8.68342 11.0976 9.31658 10.7071 9.70711L8.70711 11.7071C8.31658 12.0976 7.68342 12.0976 7.29289 11.7071C6.90237 11.3166 6.90237 10.6834 7.29289 10.2929L9.29289 8.29289C9.68342 7.90237 10.3166 7.90237 10.7071 8.29289Z" fill="#307FE2"/>
<path fill-rule="evenodd" clip-rule="evenodd" d="M1 9C1.55228 9 2 9.44772 2 10V14H14V10C14 9.44772 14.4477 9 15 9C15.5523 9 16 9.44772 16 10V14C16 15.1059 15.1036 16 14 16H2C0.896367 16 0 15.1059 0 14V10C0 9.44772 0.447715 9 1 9Z" fill="#307FE2"/>
</svg>
