<svg width="16" height="16" viewBox="0 0 16 16" fill="none" xmlns="http://www.w3.org/2000/svg">
<path fill-rule="evenodd" clip-rule="evenodd" d="M8 2.00114C4.68567 2.00114 2 4.68753 2 8C2 11.3125 4.68567 13.9989 8 13.9989C11.3143 13.9989 14 11.3125 14 8C14 4.68753 11.3143 2.00114 8 2.00114ZM0 8C0 3.5811 3.58233 0 8 0C12.4177 0 16 3.5811 16 8C16 12.4189 12.4177 16 8 16C3.58233 16 0 12.4189 0 8Z" fill="#E40046"/>
<path fill-rule="evenodd" clip-rule="evenodd" d="M5.87854 5.87874C6.26894 5.48787 6.9021 5.48766 7.29275 5.87828L10.1208 8.70605C10.5114 9.09667 10.5116 9.73019 10.1212 10.1211C9.73082 10.5119 9.09765 10.5121 8.707 10.1215L5.879 7.29376C5.48835 6.90314 5.48814 6.26961 5.87854 5.87874Z" fill="#E40046"/>
<path fill-rule="evenodd" clip-rule="evenodd" d="M10.1215 5.87874C10.5119 6.26961 10.5116 6.90314 10.121 7.29376L7.293 10.1215C6.90235 10.5121 6.26918 10.5119 5.87878 10.1211C5.48839 9.73019 5.48859 9.09667 5.87924 8.70605L8.70724 5.87828C9.0979 5.48766 9.73106 5.48787 10.1215 5.87874Z" fill="#E40046"/>
</svg>
