<svg width="20" height="18" viewBox="0 0 20 18" fill="none" xmlns="http://www.w3.org/2000/svg">
<path d="M1.1911 10.7837L17.3276 17.4794C18.0074 17.7615 18.7754 17.6374 19.3318 17.1557C19.8883 16.6739 20.121 15.9316 19.9391 15.2184L18.5029 9.58592L11.4706 9.58592C11.147 9.58592 10.8846 9.32358 10.8846 8.99994C10.8846 8.67635 11.147 8.41397 11.4706 8.41397L18.5029 8.41397L19.9391 2.78151C20.121 2.0683 19.8883 1.32596 19.3318 0.844202C18.7743 0.361507 18.0062 0.238928 17.3275 0.520491L1.19106 7.21616C0.456373 7.521 5.72205e-06 8.20451 5.72205e-06 8.99994C5.72205e-06 9.79537 0.456373 10.4789 1.1911 10.7837Z" fill="#82879B"/>
</svg>
