<svg width="15" height="15" viewBox="0 0 15 15" fill="none" xmlns="http://www.w3.org/2000/svg">
<path fill-rule="evenodd" clip-rule="evenodd" d="M11.7071 3.12141C12.0976 3.51194 12.0976 4.1451 11.7071 4.53563L4.63604 11.6067C4.24552 11.9972 3.61235 11.9972 3.22183 11.6067C2.8313 11.2162 2.8313 10.583 3.22183 10.1925L10.2929 3.12141C10.6834 2.73089 11.3166 2.73089 11.7071 3.12141Z" fill="#38B717"/>
<path fill-rule="evenodd" clip-rule="evenodd" d="M4 6.41397C4.55228 6.41397 5 6.86168 5 7.41397L5 10.2424C5 10.7947 4.55228 11.2424 4 11.2424C3.44772 11.2424 3 10.7947 3 10.2424L3 7.41397C3 6.86168 3.44772 6.41397 4 6.41397Z" fill="#38B717"/>
<path fill-rule="evenodd" clip-rule="evenodd" d="M8.41421 10.8284C8.41421 11.3807 7.9665 11.8284 7.41421 11.8284H4.58579C4.0335 11.8284 3.58579 11.3807 3.58579 10.8284C3.58579 10.2761 4.0335 9.82843 4.58579 9.82843H7.41421C7.9665 9.82843 8.41421 10.2761 8.41421 10.8284Z" fill="#38B717"/>
</svg>
