<svg width="12" height="20" viewBox="0 0 12 20" fill="none" xmlns="http://www.w3.org/2000/svg">
<path d="M0.619748 8.9808H8.28191C8.6244 8.9808 8.90159 8.70073 8.90159 8.3558V0.624938C8.90159 0.280001 8.62446 0 8.28191 0H0.619748C0.277571 0 0 0.279939 0 0.624938V8.3558C0 8.70073 0.277571 8.9808 0.619748 8.9808ZM2.04421 2.0627H6.85739V6.91816H2.04421V2.0627Z" fill="#307FE2"/>
<path d="M6.36828 19.3569C5.8452 19.3569 5.32124 19.1555 4.923 18.7527L4.11436 17.9373H2.04421V13.0819H6.85739V13.8836L8.90159 11.8214V11.6441C8.90159 11.2992 8.62446 11.0192 8.28191 11.0192H0.619748C0.277571 11.0192 0 11.2991 0 11.6441V19.375C0 19.7199 0.277508 20 0.619748 20H8.28191C8.6244 20 8.90159 19.72 8.90159 19.375V17.6548L7.81388 18.7526C7.4144 19.1555 6.89131 19.3569 6.36828 19.3569Z" fill="#307FE2"/>
<path d="M11.7006 11.9131C11.3015 11.5102 10.6545 11.5102 10.2554 11.9131L6.36826 15.8358L5.17361 14.6308C4.77412 14.228 4.12756 14.228 3.72833 14.6308C3.32884 15.0337 3.32884 15.6863 3.72833 16.0892L5.64575 18.0234C5.84518 18.2248 6.10672 18.3256 6.36826 18.3256C6.62975 18.3256 6.89135 18.2248 7.09103 18.0234L11.7006 13.3714C12.0998 12.9685 12.0998 12.3159 11.7006 11.9131Z" fill="#307FE2"/>
</svg>
