<svg width="16" height="16" viewBox="0 0 16 16" fill="none" xmlns="http://www.w3.org/2000/svg">
<path fill-rule="evenodd" clip-rule="evenodd" d="M16 8C16 8.55228 15.5523 9 15 9H5C4.44771 9 4 8.55228 4 8C4 7.44772 4.44771 7 5 7L15 7C15.5523 7 16 7.44772 16 8Z" fill="#82879B"/>
<path fill-rule="evenodd" clip-rule="evenodd" d="M15.7071 7.29289C16.0976 7.68342 16.0976 8.31658 15.7071 8.70711L13.7071 10.7071C13.3166 11.0976 12.6834 11.0976 12.2929 10.7071C11.9024 10.3166 11.9024 9.68342 12.2929 9.29289L14.2929 7.29289C14.6834 6.90237 15.3166 6.90237 15.7071 7.29289Z" fill="#82879B"/>
<path fill-rule="evenodd" clip-rule="evenodd" d="M15.7071 8.70711C15.3166 9.09763 14.6834 9.09763 14.2929 8.70711L12.2929 6.70711C11.9024 6.31658 11.9024 5.68342 12.2929 5.29289C12.6834 4.90237 13.3166 4.90237 13.7071 5.29289L15.7071 7.29289C16.0976 7.68342 16.0976 8.31658 15.7071 8.70711Z" fill="#82879B"/>
<path fill-rule="evenodd" clip-rule="evenodd" d="M11 0C12.1053 0 13 0.894717 13 2C13 2.55228 12.5523 3 12 3C11.4477 3 11 2.55228 11 2L2 2V14H11C11 13.4477 11.4477 13 12 13C12.5523 13 13 13.4477 13 14C13 15.1053 12.1053 16 11 16H2C0.894713 16 -9.53674e-07 15.1053 -9.53674e-07 14V2C-9.53674e-07 0.894716 0.894713 0 2 0L11 0Z" fill="#82879B"/>
</svg>
