<svg width="15" height="15" viewBox="0 0 15 15" fill="none" xmlns="http://www.w3.org/2000/svg">
<path fill-rule="evenodd" clip-rule="evenodd" d="M3.2217 11.6064C2.83117 11.2158 2.83117 10.5827 3.2217 10.1922L10.2928 3.12109C10.6833 2.73056 11.3165 2.73056 11.707 3.12109C12.0975 3.51161 12.0975 4.14478 11.707 4.5353L4.63591 11.6064C4.24538 11.9969 3.61222 11.9969 3.2217 11.6064Z" fill="#E40046"/>
<path fill-rule="evenodd" clip-rule="evenodd" d="M10.9288 8.31381C10.3765 8.31381 9.9288 7.8661 9.9288 7.31381L9.9288 4.48539C9.9288 3.9331 10.3765 3.48539 10.9288 3.48539C11.4811 3.48539 11.9288 3.9331 11.9288 4.48539L11.9288 7.31381C11.9288 7.8661 11.4811 8.31381 10.9288 8.31381Z" fill="#E40046"/>
<path fill-rule="evenodd" clip-rule="evenodd" d="M6.51459 3.89936C6.51459 3.34707 6.9623 2.89936 7.51459 2.89936L10.343 2.89936C10.8953 2.89936 11.343 3.34707 11.343 3.89936C11.343 4.45164 10.8953 4.89936 10.343 4.89936L7.51459 4.89936C6.9623 4.89936 6.51459 4.45164 6.51459 3.89936Z" fill="#E40046"/>
</svg>
