<svg width="20" height="18" viewBox="0 0 20 18" fill="none" xmlns="http://www.w3.org/2000/svg">
<path d="M18.8089 7.21627L2.67241 0.520563C1.99261 0.238454 1.2246 0.362556 0.668157 0.844274C0.111711 1.32607 -0.121023 2.06841 0.0608521 2.78158L1.49714 8.41408H8.52941C8.853 8.41408 9.11538 8.67642 9.11538 9.00006C9.11538 9.32365 8.85304 9.58603 8.52941 9.58603H1.49714L0.0608521 15.2185C-0.121023 15.9317 0.111672 16.674 0.668157 17.1558C1.22573 17.6385 1.99382 17.7611 2.67245 17.4795L18.8089 10.7838C19.5436 10.479 20 9.79549 20 9.00006C20 8.20463 19.5436 7.52107 18.8089 7.21627Z" fill="#307FE2"/>
</svg>
