<svg width="6" height="11" viewBox="0 0 6 11" fill="none" xmlns="http://www.w3.org/2000/svg">
<path fill-rule="evenodd" clip-rule="evenodd" d="M5.70425 7.29266C6.0949 7.68306 6.09511 8.31622 5.70471 8.70688L3.70602 10.7069C3.51846 10.8946 3.26401 11 2.99868 11C2.73335 11 2.4789 10.8946 2.29134 10.7069L0.292646 8.70688C-0.0977511 8.31622 -0.0975447 7.68306 0.293107 7.29266C0.683758 6.90227 1.31692 6.90247 1.70732 7.29312L2.99868 8.58533L4.29004 7.29312C4.68044 6.90247 5.3136 6.90227 5.70425 7.29266Z" fill="#000"/>
<path fill-rule="evenodd" clip-rule="evenodd" d="M0.293185 3.70734C-0.0974667 3.31694 -0.0976732 2.68378 0.292724 2.29312L2.29142 0.293124C2.47898 0.105446 2.73343 0 2.99876 0C3.26409 0 3.51854 0.105446 3.70609 0.293124L5.70479 2.29312C6.09519 2.68378 6.09498 3.31694 5.70433 3.70734C5.31368 4.09773 4.68051 4.09753 4.29012 3.70688L2.99876 2.41467L1.7074 3.70688C1.317 4.09753 0.683836 4.09773 0.293185 3.70734Z" fill="#000"/>
</svg>
