<svg width="20" height="20" viewBox="0 0 20 20" fill="none" xmlns="http://www.w3.org/2000/svg">
<g clip-path="url(#clip0)">
<path d="M17.3077 14.8077C16.7376 14.8077 16.2044 14.5272 15.8815 14.0574L15.0345 12.8255C14.0368 14.6144 12.1402 15.7692 10 15.7692C7.01363 15.7692 4.54988 13.4881 4.25941 10.5769H4.80773C5.02195 10.5769 5.21859 10.4582 5.31832 10.2686C5.41804 10.079 5.40449 9.84968 5.28312 9.67316L4.44211 8.44988L3.16773 6.59621C3.06016 6.43969 2.88234 6.34613 2.69234 6.34613C2.66859 6.34613 2.64504 6.34758 2.62176 6.35043C2.59848 6.35328 2.57555 6.35758 2.55301 6.36316C2.49668 6.37719 2.44293 6.39957 2.3936 6.42945C2.32453 6.47125 2.26399 6.52769 2.21692 6.59617L0.10153 9.67312C-0.0198373 9.84964 -0.0333919 10.079 0.0663344 10.2685C0.166061 10.4581 0.362701 10.5769 0.576958 10.5769H1.17227C1.30954 12.7227 2.21082 14.7211 3.74488 16.2552C5.4157 17.926 7.63714 18.8462 10 18.8462C12.3629 18.8462 14.5844 17.926 16.2552 16.2552C16.6993 15.811 17.0927 15.3238 17.4304 14.8029C17.3897 14.8058 17.3488 14.8077 17.3077 14.8077Z" fill="#307FE2"/>
<path d="M10.4396 9.42306H9.56053C9.39389 9.42306 9.25834 9.28751 9.25834 9.12087V8.6813C9.25834 8.5147 9.39389 8.37916 9.56053 8.37916H10.4396C10.6063 8.37916 10.7418 8.5147 10.7418 8.6813C10.7418 8.99994 11.0001 9.25822 11.3187 9.25822C11.6373 9.25822 11.8956 8.9999 11.8956 8.6813C11.8956 7.92482 11.3156 7.30142 10.5769 7.23197V6.9231C10.5769 6.60447 10.3186 6.34619 10 6.34619C9.68139 6.34619 9.42311 6.60451 9.42311 6.9231V7.23197C8.68444 7.30142 8.1044 7.92482 8.1044 8.6813V9.12087C8.1044 9.92376 8.75756 10.5769 9.56045 10.5769H10.4396C10.6062 10.5769 10.7417 10.7125 10.7417 10.8791V11.3187C10.7417 11.4853 10.6062 11.6209 10.4396 11.6209H9.56045C9.39381 11.6209 9.25827 11.4853 9.25827 11.3187C9.25827 11.0001 8.99995 10.7418 8.68135 10.7418C8.36276 10.7418 8.10444 11.0001 8.10444 11.3187C8.10444 12.0752 8.68444 12.6986 9.42315 12.7681V13.0769C9.42315 13.3955 9.68147 13.6538 10.0001 13.6538C10.3187 13.6538 10.577 13.3955 10.577 13.0769V12.768C11.3156 12.6986 11.8957 12.0752 11.8957 11.3187V10.8791C11.8956 10.0762 11.2425 9.42306 10.4396 9.42306Z" fill="#307FE2"/>
<path d="M19.9337 9.73143C19.8339 9.54182 19.6373 9.42307 19.4231 9.42307H18.8277C18.6905 7.27733 17.7892 5.2789 16.2551 3.7448C14.5843 2.07402 12.3629 1.15387 10 1.15387C7.63718 1.15387 5.41566 2.07402 3.74488 3.74484C3.3007 4.18902 2.90738 4.67629 2.56969 5.1971C2.61035 5.19421 2.65121 5.19234 2.69234 5.19234C3.26246 5.19234 3.79562 5.47281 4.11855 5.94257L4.9655 7.17452C5.9632 5.38566 7.85979 4.23082 9.99998 4.23082C12.9864 4.23082 15.4501 6.51191 15.7406 9.42311H15.1923C14.9781 9.42311 14.7814 9.54182 14.6817 9.73147C14.582 9.92108 14.5955 10.1504 14.7169 10.3269L15.5579 11.5502L16.8323 13.4038C16.8592 13.443 16.8905 13.4782 16.9252 13.509C17.0295 13.6013 17.1652 13.6539 17.3077 13.6539C17.4977 13.6539 17.6755 13.5604 17.7831 13.4038L18.547 12.2928L19.8985 10.3269C20.0199 10.1503 20.0334 9.921 19.9337 9.73143Z" fill="#307FE2"/>
</g>
<defs>
<clipPath id="clip0">
<rect width="20" height="20" fill="white"/>
</clipPath>
</defs>
</svg>
