<svg width="16" height="12" viewBox="0 0 16 12" fill="none" xmlns="http://www.w3.org/2000/svg">
<path fill-rule="evenodd" clip-rule="evenodd" d="M1.93146 6.49903L1.93089 6.50048L1.93123 6.49963L1.93146 6.49903ZM2.10495 6.1226C2.14977 6.0329 2.2034 5.92988 2.26605 5.81634C2.50632 5.38094 2.87304 4.80229 3.37686 4.22744C4.38452 3.07772 5.88224 2.00109 8 2.00109C10.1178 2.00109 11.6155 3.07772 12.6231 4.22744C13.127 4.80229 13.4937 5.38094 13.7339 5.81634C13.7966 5.92988 13.8502 6.0329 13.8951 6.1226C13.8528 6.20223 13.8029 6.29248 13.7454 6.39128C13.5071 6.80042 13.1426 7.34548 12.6411 7.88758C11.6409 8.9688 10.1389 9.99891 8 9.99891C5.86115 9.99891 4.35909 8.9688 3.35889 7.88758C2.8574 7.34548 2.49292 6.80042 2.25462 6.39128C2.19707 6.29248 2.14724 6.20223 2.10495 6.1226ZM15 6.13499C15.9317 5.77165 15.9316 5.77125 15.9314 5.77082L15.931 5.76988L15.9302 5.76762L15.9278 5.7617L15.9208 5.74431C15.9152 5.73029 15.9074 5.71146 15.8976 5.68814C15.8779 5.64152 15.8498 5.57686 15.813 5.49673C15.7395 5.33663 15.6309 5.11382 15.4848 4.84912C15.1938 4.32181 14.748 3.61684 14.1269 2.90809C12.8845 1.49059 10.8822 0 8 0C5.11776 0 3.11548 1.49059 1.87314 2.90809C1.25196 3.61684 0.80618 4.32181 0.515197 4.84912C0.369129 5.11382 0.260482 5.33663 0.186983 5.49673C0.150197 5.57686 0.122103 5.64152 0.10243 5.68814C0.0925904 5.71146 0.0848469 5.73029 0.0791661 5.74431L0.0721838 5.7617L0.0698424 5.76762L0.0689577 5.76988L0.0685866 5.77082C0.0684208 5.77125 0.0682628 5.77165 1 6.13499L0.0682629 5.77165C-0.0250922 6.01132 -0.0226105 6.27775 0.0751928 6.51563L1 6.13499C0.0751927 6.51563 0.0753642 6.51604 0.0755433 6.51648L0.0759414 6.51744L0.0768806 6.51971L0.0793319 6.52559L0.08654 6.54259C0.0923737 6.55623 0.100276 6.57444 0.110279 6.59689C0.130279 6.6418 0.158722 6.70381 0.195881 6.7805C0.270126 6.93372 0.379617 7.14643 0.526635 7.39884C0.819578 7.90179 1.2676 8.57285 1.89111 9.24686C3.14091 10.5979 5.13885 12 8 12C10.8611 12 12.8591 10.5979 14.1089 9.24686C14.7324 8.57285 15.1804 7.90179 15.4734 7.39884C15.6204 7.14643 15.7299 6.93372 15.8041 6.7805C15.8413 6.70381 15.8697 6.6418 15.8897 6.59689C15.8997 6.57444 15.9076 6.55623 15.9135 6.54259L15.9207 6.52559L15.9231 6.51971L15.9241 6.51744L15.9245 6.51648C15.9246 6.51604 15.9248 6.51563 15 6.13499ZM15 6.13499L15.9248 6.51563C16.0226 6.27775 16.0251 6.01132 15.9317 5.77165L15 6.13499Z" fill="#307FE2"/>
<path fill-rule="evenodd" clip-rule="evenodd" d="M5 6.00008C5 4.343 6.34433 2.99976 8 2.99976C9.65567 2.99976 11 4.343 11 6.00008C11 7.65716 9.65567 9.00041 8 9.00041C6.34433 9.00041 5 7.65716 5 6.00008ZM8 5.00084C7.44767 5.00084 7 5.4494 7 6.00008C7 6.55076 7.44767 6.99932 8 6.99932C8.55233 6.99932 9 6.55076 9 6.00008C9 5.4494 8.55233 5.00084 8 5.00084Z" fill="#307FE2"/>
</svg>
